# Blender 4.0.2
# www.blender.org
mtllib monitor.mtl
o Cube
v 1.318753 1.740966 -1.740966
v 1.318753 -1.740966 -1.740966
v 1.318753 1.740966 1.740966
v 1.318753 -1.740966 1.740966
v -1.318753 1.740966 -1.740966
v -1.318753 -1.740966 -1.740966
v -1.318753 1.740966 1.740966
v -1.318753 -1.740966 1.740966
v 1.055003 2.164334 -1.392773
v 1.055003 2.164334 1.392773
v -1.055003 2.164334 -1.392773
v -1.055003 2.164334 1.392773
v 0.738502 2.164334 -0.974941
v 0.738502 2.164334 0.974941
v -0.738502 2.164334 -0.974941
v -0.738502 2.164334 0.974941
v 0.738502 2.522397 -0.974941
v 0.738502 2.522397 0.974941
v -0.738502 2.522397 -0.974941
v -0.738502 2.522397 0.974941
v 1.176535 2.522397 -1.553216
v 1.176535 2.522397 1.553216
v -1.176535 2.522397 -1.553216
v -1.176535 2.522397 1.553216
v 1.088238 2.741132 -1.213473
v 1.088238 2.741132 1.213473
v 1.088238 4.303661 -1.213473
v 1.088238 4.303661 1.213473
v 0.899085 2.741132 -1.213473
v 0.899085 2.741132 1.213473
v 0.899085 4.303661 -1.213473
v 0.899085 4.303661 1.213473
v 1.172865 4.430306 -1.539091
v 1.102425 4.522397 -1.455377
v 1.141681 4.430306 1.553216
v 1.102425 4.522397 1.455377
v -1.102425 4.522397 -1.455377
v -1.176535 4.424559 -1.553216
v -1.102425 4.522397 1.455377
v -1.176535 4.424559 1.553216
v 1.318753 1.508093 -1.508093
v 1.318753 -1.508093 -1.508093
v 1.318753 1.508093 1.508093
v 1.318753 -1.508093 1.508093
v -1.009148 1.508093 -1.508093
v -1.009148 -1.508093 -1.508093
v -1.009148 1.508093 1.508093
v -1.009148 -1.508093 1.508093
vn -0.8488 0.5288 -0.0000
vn -0.0000 -0.0000 1.0000
vn -1.0000 -0.0000 -0.0000
vn -0.0000 -1.0000 -0.0000
vn 1.0000 -0.0000 -0.0000
vn -0.0000 -0.0000 -1.0000
vn -0.0000 1.0000 -0.0000
vn 0.8488 0.5288 -0.0000
vn -0.0000 0.6352 -0.7723
vn -0.0000 0.6352 0.7723
vn 0.0030 0.0037 -1.0000
vn 0.9791 0.0098 -0.2029
vn 0.9678 -0.0000 0.2515
vn 0.9273 0.3743 -0.0000
vn -0.0009 0.7176 0.6964
vn 0.8590 0.5120 0.0045
vn -0.7971 0.6038 -0.0000
vn 0.0014 0.6910 -0.7229
vn 0.8779 -0.4788 0.0050
vt 0.442458 0.294307
vt 0.246679 0.294307
vt 0.266257 0.270502
vt 0.422880 0.270502
vt 0.476394 0.236552
vt 0.476394 0.040773
vt 0.672173 0.040773
vt 0.672173 0.236552
vt 0.246679 0.490086
vt 0.442458 0.490086
vt 0.672173 0.466267
vt 0.476394 0.466267
vt 0.476394 0.270488
vt 0.672173 0.270488
vt 0.212743 0.237303
vt 0.016968 0.237244
vt 0.030061 0.224170
vt 0.199650 0.224222
vt 0.246679 0.236566
vt 0.246679 0.040787
vt 0.442458 0.040787
vt 0.442458 0.236566
vt 0.758495 0.863559
vt 0.758495 0.706936
vt 0.781988 0.730429
vt 0.781988 0.840065
vt 0.212743 0.041762
vt 0.016968 0.041702
vt 0.036667 0.016968
vt 0.193287 0.017016
vt 0.266266 0.016968
vt 0.422889 0.016968
vt 0.495972 0.016968
vt 0.652595 0.016968
vt 0.949054 0.816572
vt 0.949054 0.706936
vt 0.969187 0.706936
vt 0.969187 0.816572
vt 0.915118 0.706936
vt 0.891625 0.730429
vt 0.915118 0.863559
vt 0.891625 0.840065
vt 0.159119 0.413390
vt 0.159119 0.303754
vt 0.191634 0.271239
vt 0.191634 0.445905
vt 0.949054 0.960142
vt 0.949087 0.850508
vt 0.969196 0.850508
vt 0.969162 0.960142
vt 0.920794 0.016968
vt 0.920794 0.126604
vt 0.900661 0.126604
vt 0.900661 0.016968
vt 0.951558 0.500202
vt 0.951558 0.609839
vt 0.931425 0.609839
vt 0.931425 0.500202
vt 0.049483 0.303754
vt 0.016968 0.271239
vt 0.049483 0.413390
vt 0.016968 0.445905
vt 0.706109 0.400248
vt 0.706109 0.225582
vt 0.813062 0.225582
vt 0.813386 0.399976
vt 0.813382 0.191646
vt 0.706109 0.191630
vt 0.718721 0.172569
vt 0.806471 0.172569
vt 0.706162 0.016968
vt 0.813321 0.017764
vt 0.806513 0.036111
vt 0.718763 0.036111
vt 0.186132 0.649005
vt 0.022469 0.649005
vt 0.022469 0.485342
vt 0.186132 0.485342
vt 0.852685 0.153428
vt 0.852685 0.016968
vt 0.866726 0.016968
vt 0.866726 0.153428
vt 0.724559 0.706936
vt 0.724559 0.881601
vt 0.617606 0.881601
vt 0.617606 0.706936
vt 0.476394 0.881601
vt 0.476394 0.706936
vt 0.583670 0.709523
vt 0.583347 0.881601
vt 0.852503 0.362040
vt 0.852544 0.225582
vt 0.940294 0.225582
vt 0.940253 0.362040
vt 0.031009 0.895175
vt 0.031009 0.983032
vt 0.016968 0.983032
vt 0.016968 0.895175
vt 0.897489 0.500202
vt 0.897489 0.636663
vt 0.883449 0.636663
vt 0.883449 0.500202
vt 0.954730 0.104824
vt 0.954730 0.016968
vt 0.968771 0.016968
vt 0.968771 0.104824
vt 0.016968 0.479841
vt 0.189046 0.479841
vt 0.818749 0.022503
vt 0.818699 0.186163
vt 0.016968 0.654507
vt 0.818567 0.231086
vt 0.818567 0.394749
vt 0.476394 0.500202
vt 0.645985 0.500202
vt 0.645985 0.673000
vt 0.476394 0.673000
vt 0.199650 0.054836
vt 0.030061 0.054784
vt 0.246731 0.730755
vt 0.416116 0.730755
vt 0.416065 0.900343
vt 0.246679 0.900343
vt 0.186559 0.861240
vt 0.016968 0.861240
vt 0.016968 0.688442
vt 0.186559 0.688442
vt 0.416271 0.696819
vt 0.246679 0.696819
vt 0.246679 0.524022
vt 0.416271 0.524022
vt 0.849513 0.673000
vt 0.679921 0.673000
vt 0.679921 0.500202
vt 0.849513 0.500202
s 0
usemtl Material.001
f 5/1/1 7/2/1 12/3/1 11/4/1
f 4/5/2 3/6/2 7/7/2 8/8/2
f 8/9/3 7/2/3 5/1/3 6/10/3
f 6/11/4 2/12/4 4/13/4 8/14/4
f 4/15/5 2/16/5 42/17/5 44/18/5
f 6/19/6 5/20/6 1/21/6 2/22/6
f 11/23/7 12/24/7 16/25/7 15/26/7
f 3/27/8 1/28/8 9/29/8 10/30/8
f 1/21/9 5/20/9 11/31/9 9/32/9
f 7/7/10 3/6/10 10/33/10 12/34/10
f 13/35/6 15/36/6 19/37/6 17/38/6
f 12/24/7 10/39/7 14/40/7 16/25/7
f 9/41/7 11/23/7 15/26/7 13/42/7
f 10/39/7 9/41/7 13/42/7 14/40/7
f 19/43/4 20/44/4 24/45/4 23/46/4
f 14/47/5 13/48/5 17/49/5 18/50/5
f 15/51/3 16/52/3 20/53/3 19/54/3
f 16/55/2 14/56/2 18/57/2 20/58/2
f 20/44/4 18/59/4 22/60/4 24/45/4
f 17/61/4 19/43/4 23/46/4 21/62/4
f 18/59/4 17/61/4 21/62/4 22/60/4
f 21/63/11 23/64/11 38/65/11 33/66/11
f 35/67/12 22/68/12 26/69/12 28/70/12
f 21/71/13 33/72/13 27/73/13 25/74/13
f 34/75/7 37/76/7 39/77/7 36/78/7
f 27/79/4 28/80/4 32/81/4 31/82/4
f 23/83/3 24/84/3 40/85/3 38/86/3
f 22/68/14 21/71/14 25/74/14 26/69/14
f 24/87/2 22/88/2 35/89/2 40/90/2
f 30/91/5 29/92/5 31/93/5 32/94/5
f 28/95/6 26/96/6 30/97/6 32/98/6
f 26/99/7 25/100/7 29/101/7 30/102/7
f 25/103/2 27/104/2 31/105/2 29/106/2
f 36/78/15 39/77/15 40/107/15 35/108/15
f 34/109/16 36/110/16 35/67/16 33/72/16
f 39/77/17 37/76/17 38/111/17 40/107/17
f 37/112/18 34/113/18 33/66/18 38/65/18
f 33/72/19 35/67/19 28/70/19 27/73/19
f 44/114/7 42/115/7 46/116/7 48/117/7
f 1/28/5 3/27/5 43/118/5 41/119/5
f 3/27/5 4/15/5 44/18/5 43/118/5
f 2/16/5 1/28/5 41/119/5 42/17/5
f 46/120/5 45/121/5 47/122/5 48/123/5
f 43/124/6 44/125/6 48/126/6 47/127/6
f 41/128/4 43/129/4 47/130/4 45/131/4
f 42/132/2 41/133/2 45/134/2 46/135/2
o Cube.001
v -1.157525 -0.559272 1.622982
v -1.157525 -0.200774 1.622982
v -1.157525 -0.559272 -1.622982
v -1.157525 -0.200774 -1.622982
v 0.842475 -0.559272 1.622982
v 0.842475 -0.200774 1.622982
v 0.842475 -0.559272 -1.622982
v 0.842475 -0.200774 -1.622982
vn -1.0000 -0.0000 -0.0000
vn -0.0000 -0.0000 -1.0000
vn 1.0000 -0.0000 -0.0000
vn -0.0000 -0.0000 1.0000
vn -0.0000 -1.0000 -0.0000
vn -0.0000 1.0000 -0.0000
vt 0.375000 0.000000
vt 0.625000 0.000000
vt 0.625000 0.250000
vt 0.375000 0.250000
vt 0.625000 0.500000
vt 0.375000 0.500000
vt 0.625000 0.750000
vt 0.375000 0.750000
vt 0.625000 1.000000
vt 0.375000 1.000000
vt 0.125000 0.500000
vt 0.125000 0.750000
vt 0.875000 0.500000
vt 0.875000 0.750000
s 0
usemtl Material.002
f 49/136/20 50/137/20 52/138/20 51/139/20
f 51/139/21 52/138/21 56/140/21 55/141/21
f 55/141/22 56/140/22 54/142/22 53/143/22
f 53/143/23 54/142/23 50/144/23 49/145/23
f 51/146/24 55/141/24 53/143/24 49/147/24
f 56/140/25 52/148/25 50/149/25 54/142/25
o Cube.002
v -1.157525 -1.532386 1.411813
v -1.157525 -0.861017 1.411813
v 0.842475 -1.532386 1.411813
v 0.842475 -0.861017 1.411813
v -0.876184 -1.437944 -0.891496
v -0.876184 -0.955459 -0.891496
v 0.561133 -1.437944 -0.891496
v 0.561133 -0.955459 -0.891496
v -0.876184 -1.437944 -1.073869
v -0.876184 -0.955459 -1.073869
v 0.561133 -1.437944 -1.073869
v 0.561133 -0.955459 -1.073869
v 0.843690 -0.981018 -0.170679
v 0.843690 -1.259876 -0.170679
v 0.843690 -0.981018 1.286286
v 0.843690 -1.259876 1.286286
v -1.163647 -1.534441 -1.477589
v -1.163647 -0.858962 -1.477589
v 0.848597 -1.534441 -1.477589
v 0.848597 -0.858962 -1.477589
v -1.031541 -1.490095 -0.891496
v -1.157525 -1.532386 -0.746406
v -1.157525 -0.861017 -0.746406
v -1.031541 -0.903308 -0.891496
v 0.716490 -1.490095 -0.891496
v 0.842475 -1.532386 -0.746406
v 0.842475 -0.861017 -0.746406
v 0.716490 -0.903308 -0.891496
v -1.163647 -1.534441 -1.183598
v -1.068368 -1.502457 -1.073869
v -1.068368 -0.890946 -1.073869
v -1.163647 -0.858962 -1.183598
v 0.848597 -1.534441 -1.183598
v 0.753317 -1.502457 -1.073869
v 0.753317 -0.890946 -1.073869
v 0.848597 -0.858962 -1.183598
v 0.782564 -0.981018 -0.170679
v 0.782564 -1.259876 -0.170679
v 0.782564 -0.981018 1.286286
v 0.782564 -1.259876 1.286286
v 0.843690 -0.979652 -0.339592
v 0.843690 -1.260655 -0.339592
v 0.842475 -1.262161 -0.623966
v 0.834644 -0.980542 -0.619399
v 0.747600 -0.981003 -0.337838
v 0.747600 -1.262007 -0.337838
v 0.746384 -1.263513 -0.622212
v 0.738553 -0.981894 -0.617646
vn -0.0000 -0.0000 -1.0000
vn -0.0000 -0.0000 1.0000
vn 1.0000 -0.0000 -0.0000
vn -1.0000 -0.0000 -0.0000
vn 0.9999 0.0101 -0.0000
vn -0.0000 1.0000 -0.0000
vn -0.0000 -1.0000 -0.0000
vn -0.7551 -0.0000 -0.6556
vn -0.0000 -0.9600 -0.2798
vn -0.0000 0.9600 -0.2798
vn 0.7551 -0.0000 -0.6556
vn -0.7551 -0.0000 0.6556
vn -0.0000 -0.9600 0.2798
vn -0.0000 0.9600 0.2798
vn 0.7551 -0.0000 0.6556
vn 0.9981 -0.0590 -0.0202
vn 1.0000 -0.0000 0.0097
vn 1.0000 -0.0045 -0.0000
vn 0.0185 -0.0157 0.9997
vn 1.0000 -0.0005 -0.0027
vn 0.9996 0.0081 0.0265
vn 0.9997 0.0141 -0.0182
vn -0.0142 0.9999 -0.0052
vn 0.0141 -0.9999 0.0027
vn -0.0182 -0.0000 -0.9998
vt 0.577641 0.790381
vt 0.577641 0.577607
vt 0.596551 0.596518
vt 0.596551 0.771470
vt 0.790414 0.577607
vt 0.790414 0.790381
vt 0.771504 0.771470
vt 0.771504 0.596518
vt 0.562271 0.532714
vt 0.562271 0.289270
vt 0.805714 0.289271
vt 0.805714 0.532714
vt 0.854547 0.289270
vt 0.854547 0.464223
vt 0.835272 0.464223
vt 0.835272 0.289270
vt 0.563761 0.258222
vt 0.563761 0.014779
vt 0.791869 0.014779
vt 0.791869 0.258222
vt 0.532713 0.304613
vt 0.532713 0.532722
vt 0.489200 0.519455
vt 0.489200 0.365464
vt 0.258214 0.517385
vt 0.014779 0.517378
vt 0.014779 0.289270
vt 0.258214 0.289278
vt 0.499239 0.224715
vt 0.499239 0.049762
vt 0.522632 0.026369
vt 0.522632 0.248108
vt 0.903380 0.289271
vt 0.903380 0.464217
vt 0.884105 0.464217
vt 0.884105 0.289270
vt 0.870260 0.189726
vt 0.870260 0.014779
vt 0.889536 0.014779
vt 0.889536 0.189725
vt 0.821427 0.189732
vt 0.821427 0.014779
vt 0.840703 0.014779
vt 0.840703 0.189732
vt 0.190329 0.562332
vt 0.190329 0.807266
vt 0.159257 0.807266
vt 0.159257 0.562332
vt 0.219887 0.807258
vt 0.219887 0.562333
vt 0.250960 0.562332
vt 0.250960 0.807257
vt 0.118080 0.562333
vt 0.118080 0.807258
vt 0.087007 0.807257
vt 0.087007 0.562332
vt 0.847107 0.647772
vt 0.847107 0.493781
vt 0.854547 0.493781
vt 0.854547 0.647772
vt 0.014779 0.259713
vt 0.014779 0.014779
vt 0.259712 0.014779
vt 0.259712 0.259713
vt 0.324287 0.224715
vt 0.300894 0.248108
vt 0.324287 0.049762
vt 0.300894 0.026369
vt 0.562271 0.805716
vt 0.562271 0.562272
vt 0.805714 0.805716
vt 0.242750 0.532774
vt 0.029984 0.532768
vt 0.289270 0.304613
vt 0.304590 0.289270
vt 0.517364 0.289270
vt 0.289270 0.805715
vt 0.289270 0.562280
vt 0.517378 0.562283
vt 0.517378 0.805718
vt 0.026376 0.562332
vt 0.026376 0.807266
vt 0.014779 0.795669
vt 0.014779 0.573930
vt 0.129699 0.573832
vt 0.129699 0.795563
vt 0.289270 0.014779
vt 0.534203 0.014779
vt 0.289270 0.259713
vt 0.057449 0.562332
vt 0.057449 0.807266
vt 0.489696 0.347611
vt 0.489372 0.318037
vt 0.289270 0.532722
vt 0.388084 0.519455
vt 0.388084 0.365464
vt 0.884105 0.493781
vt 0.985221 0.493781
vt 0.985221 0.647772
vt 0.884105 0.647772
vt 0.891545 0.677330
vt 0.891545 0.831320
vt 0.884105 0.831320
vt 0.884105 0.677330
vt 0.926534 0.014779
vt 0.926534 0.115895
vt 0.919093 0.115895
vt 0.919093 0.014779
vt 0.919093 0.246569
vt 0.919093 0.145453
vt 0.926534 0.145453
vt 0.926534 0.246569
vt 0.842847 0.779451
vt 0.842847 0.677330
vt 0.854547 0.677710
vt 0.854547 0.779832
vt 0.387255 0.317555
vt 0.387802 0.347611
vt 0.562271 0.937714
vt 0.562753 0.835597
vt 0.592327 0.835273
vt 0.592327 0.937167
vt 0.833128 0.219414
vt 0.833128 0.249472
vt 0.821427 0.249348
vt 0.821427 0.219289
vt 0.621885 0.864868
vt 0.621885 0.835273
vt 0.633584 0.835525
vt 0.633584 0.865120
vt 0.854543 0.809390
vt 0.854543 0.911284
vt 0.842847 0.911774
vt 0.842847 0.809880
s 0
usemtl Material
f 77/150/26 80/151/26 62/152/26 61/153/26
f 84/154/26 81/155/26 63/156/26 64/157/26
f 59/158/27 60/159/27 58/160/27 57/161/27
f 81/155/26 77/150/26 61/153/26 63/156/26
f 80/151/26 84/154/26 64/157/26 62/152/26
f 64/162/28 63/163/28 67/164/28 68/165/28
f 57/166/29 58/167/29 79/168/29 78/169/29
f 83/170/30 60/171/30 71/172/30 69/173/30
f 83/174/31 79/175/31 58/176/31 60/177/31
f 65/178/27 66/179/27 87/180/27 86/181/27
f 63/182/32 61/183/32 65/184/32 67/185/32
f 62/186/31 64/187/31 68/188/31 66/189/31
f 61/190/29 62/191/29 66/192/29 65/193/29
f 92/194/28 89/195/28 75/196/28 76/197/28
f 88/198/31 92/199/31 76/200/31 74/201/31
f 89/202/32 85/203/32 73/204/32 75/205/32
f 69/206/32 71/207/32 95/208/32 93/209/32
f 73/210/26 74/211/26 76/212/26 75/213/26
f 67/214/27 65/178/27 86/181/27 90/215/27
f 68/216/27 67/214/27 90/215/27 91/217/27
f 66/179/27 68/216/27 91/217/27 87/180/27
f 80/151/33 77/150/33 78/218/33 79/219/33
f 82/220/34 78/218/34 77/150/34 81/155/34
f 79/175/35 83/174/35 84/221/35 80/222/35
f 83/170/36 82/223/36 81/224/36 84/225/36
f 78/226/32 82/227/32 59/228/32 57/229/32
f 88/230/37 85/231/37 86/232/37 87/233/37
f 90/234/38 86/235/38 85/203/38 89/202/38
f 87/180/39 91/217/39 92/236/39 88/237/39
f 91/217/40 90/215/40 89/238/40 92/236/40
f 85/231/29 88/230/29 74/239/29 73/240/29
f 83/170/41 69/173/41 97/241/41 100/242/41
f 60/171/42 59/243/42 72/244/42 71/172/42
f 59/243/43 82/223/43 70/245/43 72/244/43
f 94/246/28 93/247/28 95/248/28 96/249/28
f 72/250/31 70/251/31 94/252/31 96/253/31
f 71/254/26 72/255/26 96/256/26 95/257/26
f 70/258/27 69/259/27 93/260/27 94/261/27
f 99/262/44 100/263/44 104/264/44 103/265/44
f 70/245/45 82/223/45 99/266/45 98/267/45
f 82/223/46 83/170/46 100/242/46 99/266/46
f 69/173/28 70/245/28 98/267/28 97/241/28
f 103/268/47 104/269/47 101/270/47 102/271/47
f 98/272/48 99/273/48 103/274/48 102/275/48
f 100/276/49 97/277/49 101/278/49 104/279/49
f 97/280/50 98/281/50 102/282/50 101/283/50
